# Blender 3.6.0
# www.blender.org
mtllib cartel.mtl
o Cube
v 0.164714 1.945606 -1.000000
v 0.164714 0.555501 -1.000000
v 0.164714 1.977525 1.000000
v 0.164714 0.627162 1.000000
v -0.001322 1.945606 -1.000000
v -0.001322 0.555501 -1.000000
v -0.001322 1.977525 1.000000
v -0.001322 0.627162 1.000000
v -0.001322 1.647726 1.000000
v -0.058640 0.000000 -0.107392
v -0.058640 2.119064 -0.104026
v 0.025322 0.000000 -0.066958
v 0.022691 2.119064 -0.064859
v 0.046059 0.000000 0.023897
v 0.042778 2.119064 0.023148
v -0.012045 0.000000 0.096756
v -0.013505 2.119064 0.093724
v -0.105236 0.000000 0.096756
v -0.103776 2.119064 0.093724
v -0.163339 0.000000 0.023897
v -0.160058 2.119064 0.023148
v -0.142602 0.000000 -0.066958
v -0.139971 2.119064 -0.064859
v 0.164714 1.647726 1.000000
v 0.164714 1.567437 1.000000
v -0.001322 1.567437 1.000000
v -0.001322 0.617333 0.648013
v 0.164714 1.977525 0.648013
v -0.001322 1.977525 0.648013
v 0.164714 0.617333 0.648013
v 0.164714 1.607581 0.648013
v 0.164714 1.154803 -1.000000
v 0.164714 1.099458 1.000000
v -0.001322 1.154803 -1.000000
v -0.001322 1.099458 1.000000
v -0.001322 1.099458 0.648013
v 0.164714 1.044112 -1.000000
v -0.001322 1.044112 -1.000000
v -0.001322 1.950537 -0.676876
v 0.164714 0.570498 -0.676876
v -0.001322 1.607582 -0.676876
v -0.001322 0.570498 -0.676876
v 0.164714 1.950537 -0.676876
v 0.164714 1.607582 -0.676876
v 0.164714 1.099458 -0.676876
v 0.164714 1.099458 0.648013
v -0.001322 1.099458 -0.676876
v -0.001322 1.607581 -1.000000
v 0.164714 1.607581 -1.000000
v -0.001322 1.607581 0.648014
v -0.058640 2.034422 -0.080000
v 0.003906 2.034422 -0.049879
v 0.019354 2.034422 0.017802
v -0.023930 2.034422 0.072078
v -0.093351 2.034422 0.072078
v -0.136635 2.034422 0.017802
v -0.121187 2.034422 -0.049879
v 0.003906 0.242238 -0.049879
v 0.019354 0.242238 0.017802
v -0.023930 0.242238 0.072078
v -0.093351 0.242238 0.072078
v -0.136635 0.242238 0.017802
v -0.121187 0.242238 -0.049879
v -0.058640 0.242238 -0.080000
vn -0.0000 1.0000 -0.0000
vn -0.0000 -0.0000 1.0000
vn -1.0000 -0.0000 -0.0000
vn -0.0000 -0.9996 0.0279
vn 1.0000 -0.0000 -0.0000
vn -0.0000 -0.0000 -1.0000
vn 0.4204 -0.2478 -0.8729
vn 0.9445 -0.2478 -0.2156
vn -0.0000 -0.9936 0.1133
vn 0.7575 -0.2478 0.6040
vn -0.0000 -0.2478 0.9688
vn -0.7575 -0.2478 0.6040
vn -0.9445 -0.2478 -0.2156
vn -0.4204 -0.2478 -0.8729
vn -0.0000 -1.0000 -0.0000
vn -0.0000 -0.9994 0.0353
vn -0.0000 0.9998 -0.0204
vn -0.0000 -0.9856 -0.1688
vn -0.0000 0.9999 -0.0153
vn -0.0000 -0.9989 0.0464
vn -0.0000 0.9856 -0.1688
vn -0.0000 0.9936 0.1133
vn -0.4339 -0.0000 -0.9010
vn -0.9749 -0.0000 -0.2225
vn -0.7818 -0.0000 0.6235
vn 0.7818 -0.0000 0.6235
vn 0.9749 -0.0000 -0.2225
vn 0.4339 -0.0000 -0.9010
vn 0.4316 0.1014 -0.8963
vn 0.9699 0.1014 -0.2214
vn 0.7778 0.1014 0.6203
vn -0.0000 0.1014 0.9949
vn -0.7778 0.1014 0.6203
vn -0.9699 0.1014 -0.2214
vn -0.4316 0.1014 -0.8963
vt 0.602110 0.668278
vt 0.806329 0.668278
vt 0.806329 0.704219
vt 0.602110 0.704219
vt 0.558592 0.704219
vt 0.602110 0.908438
vt 0.558592 0.908438
vt 0.558592 0.270561
vt 0.602110 0.270561
vt 0.602110 0.295781
vt 0.558592 0.295781
vt 0.193671 0.668278
vt 0.397890 0.668278
vt 0.397890 0.704219
vt 0.193671 0.704219
vt 0.558592 0.668278
vt 0.602110 0.500000
vt 0.558592 0.500000
vt 0.486845 0.525220
vt 0.540635 0.525220
vt 0.540635 0.668278
vt 0.486845 0.668278
vt 0.540635 0.704219
vt 0.486845 0.704219
vt 0.908438 0.895621
vt 0.908438 0.908438
vt 0.791742 0.908438
vt 0.791742 0.895621
vt 0.558592 0.525220
vt 0.602110 0.525220
vt 0.486845 0.295781
vt 0.540635 0.295781
vt 0.540635 0.500000
vt 0.486845 0.500000
vt 0.675045 0.908438
vt 0.675045 0.895621
vt 0.549613 0.704219
vt 0.549613 0.908438
vt 0.558348 0.908438
vt 0.558348 0.895621
vt 0.486845 0.091562
vt 0.540635 0.091562
vt 0.540635 0.127503
vt 0.486845 0.127503
vt 0.441652 0.908438
vt 0.441652 0.895621
vt 0.540635 0.908438
vt 0.486845 0.908438
vt 0.324955 0.908438
vt 0.324955 0.895621
vt 0.449059 0.418016
vt 0.295781 0.491831
vt 0.142502 0.418016
vt 0.104646 0.252155
vt 0.210718 0.119146
vt 0.380844 0.119146
vt 0.486916 0.252155
vt 0.208258 0.908438
vt 0.208258 0.895621
vt 0.486845 0.270561
vt 0.540635 0.270561
vt 0.091562 0.908438
vt 0.091562 0.895621
vt 0.704219 0.491831
vt 0.857498 0.418016
vt 0.895354 0.252155
vt 0.789282 0.119146
vt 0.619156 0.119146
vt 0.513084 0.252155
vt 0.550941 0.418016
vt 0.193671 0.525220
vt 0.397890 0.525220
vt 0.558592 0.091562
vt 0.602110 0.091562
vt 0.602110 0.127503
vt 0.558592 0.127503
vt 0.806329 0.525220
vt 0.477509 0.295781
vt 0.477509 0.500000
vt 0.468172 0.525220
vt 0.468172 0.668278
vt 0.468172 0.704219
vt 0.397890 0.295781
vt 0.468172 0.295781
vt 0.468172 0.500000
vt 0.397890 0.500000
vt 0.397890 0.091562
vt 0.468172 0.091562
vt 0.468172 0.127503
vt 0.397890 0.127503
vt 0.468172 0.908438
vt 0.397890 0.908438
vt 0.397890 0.270561
vt 0.468172 0.270561
vt 0.806329 0.500000
vt 0.193671 0.500000
vt 0.208258 0.536681
vt 0.091562 0.536681
vt 0.324955 0.536681
vt 0.441652 0.536681
vt 0.558348 0.536681
vt 0.675045 0.536681
vt 0.791742 0.536681
vt 0.908438 0.536681
vt 0.908438 0.500000
vt 0.791742 0.500000
vt 0.675045 0.500000
vt 0.558348 0.500000
vt 0.441652 0.500000
vt 0.324955 0.500000
vt 0.208258 0.500000
vt 0.091562 0.500000
s 0
usemtl Material
f 28/1/1 29/2/1 7/3/1 3/4/1
f 24/5/2 3/4/2 7/6/2 9/7/2
f 41/8/3 39/9/3 5/10/3 48/11/3
f 27/12/4 30/13/4 4/14/4 8/15/4
f 31/16/5 28/1/5 3/4/5 24/5/5
f 48/11/6 5/10/6 1/17/6 49/18/6
f 45/19/5 44/20/5 31/21/5 46/22/5
f 46/22/5 31/21/5 25/23/5 33/24/5
f 51/25/7 11/26/7 13/27/7 52/28/7
f 44/29/5 43/30/5 28/1/5 31/16/5
f 34/31/6 48/32/6 49/33/6 32/34/6
f 52/28/8 13/27/8 15/35/8 53/36/8
f 31/37/9 24/5/9 9/7/9 50/38/9
f 53/36/10 15/35/10 17/39/10 54/40/10
f 35/41/3 26/42/3 50/43/3 36/44/3
f 54/40/11 17/39/11 19/45/11 55/46/11
f 33/24/2 25/23/2 26/47/2 35/48/2
f 55/46/12 19/45/12 21/49/12 56/50/12
f 13/51/1 11/52/1 23/53/1 21/54/1 19/55/1 17/56/1 15/57/1
f 56/50/13 21/49/13 23/58/13 57/59/13
f 47/60/3 41/61/3 48/32/3 34/31/3
f 57/59/14 23/58/14 11/62/14 51/63/14
f 10/64/15 12/65/15 14/66/15 16/67/15 18/68/15 20/69/15 22/70/15
f 42/71/16 40/72/16 30/13/16 27/12/16
f 9/73/3 7/74/3 29/75/3 50/76/3
f 43/30/17 39/77/17 29/2/17 28/1/17
f 47/78/18 34/31/18 32/34/18 45/79/18
f 40/72/5 45/80/5 46/81/5 30/13/5
f 30/13/5 46/81/5 33/82/5 4/14/5
f 6/83/6 38/84/6 37/85/6 2/86/6
f 8/87/3 35/88/3 36/89/3 27/90/3
f 4/14/2 33/82/2 35/91/2 8/92/2
f 42/93/3 47/94/3 38/84/3 6/83/3
f 27/90/3 36/89/3 47/94/3 42/93/3
f 2/86/5 37/85/5 45/80/5 40/72/5
f 1/17/19 5/95/19 39/77/19 43/30/19
f 6/96/20 2/86/20 40/72/20 42/71/20
f 36/44/3 50/43/3 41/61/3 47/60/3
f 49/18/5 1/17/5 43/30/5 44/29/5
f 32/34/5 49/33/5 44/20/5 45/19/5
f 50/76/3 29/75/3 39/9/3 41/8/3
f 38/84/21 47/78/21 45/79/21 37/85/21
f 25/23/22 31/37/22 50/38/22 26/47/22
f 63/97/23 57/59/23 51/63/23 64/98/23
f 62/99/24 56/50/24 57/59/24 63/97/24
f 61/100/25 55/46/25 56/50/25 62/99/25
f 60/101/2 54/40/2 55/46/2 61/100/2
f 59/102/26 53/36/26 54/40/26 60/101/26
f 58/103/27 52/28/27 53/36/27 59/102/27
f 64/104/28 51/25/28 52/28/28 58/103/28
f 10/105/29 64/104/29 58/103/29 12/106/29
f 12/106/30 58/103/30 59/102/30 14/107/30
f 14/107/31 59/102/31 60/101/31 16/108/31
f 16/108/32 60/101/32 61/100/32 18/109/32
f 18/109/33 61/100/33 62/99/33 20/110/33
f 20/110/34 62/99/34 63/97/34 22/111/34
f 22/111/35 63/97/35 64/98/35 10/112/35
