# Blender 3.6.0
# www.blender.org
mtllib corona.mtl
o Cylinder
v 0.000000 -0.000000 -0.076155
v 0.000000 0.038775 -0.085401
v 0.038077 -0.000000 -0.065952
v 0.050000 0.100000 -0.086603
v 0.065952 -0.000000 -0.038077
v 0.073959 0.038775 -0.042700
v 0.076155 -0.000000 0.000000
v 0.100000 0.100000 0.000000
v 0.065952 -0.000000 0.038077
v 0.073959 0.038775 0.042700
v 0.038077 -0.000000 0.065952
v 0.050000 0.100000 0.086603
v 0.000000 -0.000000 0.076155
v 0.000000 0.038775 0.085401
v -0.038077 -0.000000 0.065952
v -0.050000 0.100000 0.086603
v -0.065952 -0.000000 0.038077
v -0.073959 0.038775 0.042700
v -0.076155 -0.000000 0.000000
v -0.100000 0.100000 0.000000
v -0.065952 -0.000000 -0.038077
v -0.073959 0.038775 -0.042700
v -0.038077 -0.000000 -0.065952
v -0.050000 0.100000 -0.086603
v 0.000000 0.002319 -0.066428
v 0.000000 0.041094 -0.075673
v 0.033214 0.002319 -0.057528
v 0.045136 0.102319 -0.078178
v 0.057528 0.002319 -0.033214
v 0.065535 0.041094 -0.037837
v 0.066428 0.002319 0.000000
v 0.090273 0.102319 0.000000
v 0.057528 0.002319 0.033214
v 0.065535 0.041094 0.037837
v 0.033214 0.002319 0.057528
v 0.045136 0.102319 0.078178
v 0.000000 0.002319 0.066428
v 0.000000 0.041094 0.075673
v -0.033214 0.002319 0.057528
v -0.045136 0.102319 0.078178
v -0.057528 0.002319 0.033214
v -0.065535 0.041094 0.037837
v -0.066428 0.002319 0.000000
v -0.090273 0.102319 0.000000
v -0.057528 0.002319 -0.033214
v -0.065535 0.041094 -0.037837
v -0.033214 0.002319 -0.057528
v -0.045136 0.102319 -0.078178
vn 0.2522 -0.2245 -0.9413
vn 0.6891 -0.2245 -0.6891
vn 0.9413 -0.2245 -0.2522
vn 0.9413 -0.2245 0.2522
vn 0.6891 -0.2245 0.6891
vn 0.2522 -0.2245 0.9413
vn -0.2522 -0.2245 0.9413
vn -0.6891 -0.2245 0.6891
vn -0.9413 -0.2245 0.2522
vn -0.9413 -0.2245 -0.2522
vn -0.6891 -0.2245 -0.6891
vn -0.2522 -0.2245 -0.9413
vn -0.2522 0.2245 0.9413
vn -0.6891 0.2245 0.6891
vn -0.9413 0.2245 0.2522
vn -0.9413 0.2245 -0.2522
vn -0.6891 0.2245 -0.6891
vn -0.2522 0.2245 -0.9413
vn 0.2522 0.2245 -0.9413
vn 0.6891 0.2245 -0.6891
vn 0.9413 0.2245 -0.2522
vn 0.9413 0.2245 0.2522
vn 0.6891 0.2245 0.6891
vn 0.2522 0.2245 0.9413
vn -0.0620 -0.9709 0.2315
vn -0.7461 0.5692 -0.3454
vn -0.1695 -0.9709 0.1695
vn 0.6722 0.5692 0.4735
vn -0.2315 -0.9709 0.0620
vn -0.0739 0.5692 -0.8189
vn -0.2315 -0.9709 -0.0620
vn -0.0739 0.5692 0.8189
vn -0.1695 -0.9709 -0.1695
vn 0.6722 0.5692 -0.4735
vn -0.0620 -0.9709 -0.2315
vn -0.7461 0.5692 0.3454
vn 0.0620 -0.9709 -0.2315
vn 0.7461 0.5692 0.3454
vn 0.1695 -0.9709 -0.1695
vn -0.6722 0.5692 -0.4735
vn 0.2315 -0.9709 -0.0620
vn 0.0739 0.5692 0.8189
vn 0.2315 -0.9709 0.0620
vn 0.0739 0.5692 -0.8189
vn 0.1695 -0.9709 0.1695
vn -0.6722 0.5692 0.4735
vn 0.0620 -0.9709 0.2315
vn 0.7461 0.5692 -0.3454
vt 1.000000 0.500000
vt 1.000000 0.693873
vt 0.916667 1.000000
vt 0.916667 0.500000
vt 0.833333 0.693873
vt 0.833333 0.500000
vt 0.750000 1.000000
vt 0.750000 0.500000
vt 0.666667 0.693873
vt 0.666667 0.500000
vt 0.583333 1.000000
vt 0.583333 0.500000
vt 0.500000 0.693873
vt 0.500000 0.500000
vt 0.416667 1.000000
vt 0.416667 0.500000
vt 0.333333 0.693873
vt 0.333333 0.500000
vt 0.250000 1.000000
vt 0.250000 0.500000
vt 0.166667 0.693873
vt 0.166667 0.500000
vt 0.083333 1.000000
vt 0.083333 0.500000
vt 0.000000 0.693873
vt 0.000000 0.500000
s 0
f 1/1/1 2/2/1 4/3/1 3/4/1
f 3/4/2 4/3/2 6/5/2 5/6/2
f 5/6/3 6/5/3 8/7/3 7/8/3
f 7/8/4 8/7/4 10/9/4 9/10/4
f 9/10/5 10/9/5 12/11/5 11/12/5
f 11/12/6 12/11/6 14/13/6 13/14/6
f 13/14/7 14/13/7 16/15/7 15/16/7
f 15/16/8 16/15/8 18/17/8 17/18/8
f 17/18/9 18/17/9 20/19/9 19/20/9
f 19/20/10 20/19/10 22/21/10 21/22/10
f 21/22/11 22/21/11 24/23/11 23/24/11
f 23/24/12 24/23/12 2/25/12 1/26/12
f 25/1/13 27/4/13 28/3/13 26/2/13
f 27/4/14 29/6/14 30/5/14 28/3/14
f 29/6/15 31/8/15 32/7/15 30/5/15
f 31/8/16 33/10/16 34/9/16 32/7/16
f 33/10/17 35/12/17 36/11/17 34/9/17
f 35/12/18 37/14/18 38/13/18 36/11/18
f 37/14/19 39/16/19 40/15/19 38/13/19
f 39/16/20 41/18/20 42/17/20 40/15/20
f 41/18/21 43/20/21 44/19/21 42/17/21
f 43/20/22 45/22/22 46/21/22 44/19/22
f 45/22/23 47/24/23 48/23/23 46/21/23
f 47/24/24 25/26/24 26/25/24 48/23/24
f 1/1/25 3/4/25 27/4/25 25/1/25
f 4/3/26 2/2/26 26/2/26 28/3/26
f 3/4/27 5/6/27 29/6/27 27/4/27
f 6/5/28 4/3/28 28/3/28 30/5/28
f 5/6/29 7/8/29 31/8/29 29/6/29
f 8/7/30 6/5/30 30/5/30 32/7/30
f 7/8/31 9/10/31 33/10/31 31/8/31
f 10/9/32 8/7/32 32/7/32 34/9/32
f 9/10/33 11/12/33 35/12/33 33/10/33
f 12/11/34 10/9/34 34/9/34 36/11/34
f 11/12/35 13/14/35 37/14/35 35/12/35
f 14/13/36 12/11/36 36/11/36 38/13/36
f 13/14/37 15/16/37 39/16/37 37/14/37
f 16/15/38 14/13/38 38/13/38 40/15/38
f 15/16/39 17/18/39 41/18/39 39/16/39
f 18/17/40 16/15/40 40/15/40 42/17/40
f 17/18/41 19/20/41 43/20/41 41/18/41
f 20/19/42 18/17/42 42/17/42 44/19/42
f 19/20/43 21/22/43 45/22/43 43/20/43
f 22/21/44 20/19/44 44/19/44 46/21/44
f 21/22/45 23/24/45 47/24/45 45/22/45
f 24/23/46 22/21/46 46/21/46 48/23/46
f 23/24/47 1/26/47 25/26/47 47/24/47
f 2/25/48 24/23/48 48/23/48 26/25/48
