# Blender 3.3.1
# www.blender.org
mtllib mesa.mtl
o Cube
v 1.000000 1.000000 -3.572148
v 1.000000 -1.000000 -3.572148
v 1.000000 1.000000 3.572148
v 1.000000 -1.000000 3.572148
v -2.574155 1.000000 -6.074163
v -2.574155 -1.000000 -6.074163
v -2.574155 1.000000 6.074163
v -2.574155 -1.000000 6.074163
v -2.574155 -1.000000 -1.725805
v -2.574155 -1.000000 1.725805
v 0.328377 1.000000 -1.725805
v 0.328377 1.000000 1.725805
v -2.574155 1.000000 1.725805
v -2.574155 1.000000 -1.725805
v 0.328377 -1.000000 1.725805
v 0.328377 -1.000000 -1.725805
v -5.795183 -1.000000 1.725805
v -5.795183 -1.000000 6.074163
v -5.795183 2.576893 6.074163
v -5.795183 2.576893 -6.074163
v -5.795183 -1.000000 -6.074163
v -5.795183 2.576893 -1.725805
v -5.795183 -1.000000 -1.725805
v -5.795183 2.576893 1.725805
v -5.380786 -1.000000 -1.725805
v -5.380786 -1.000000 1.725805
v -5.380786 -1.000000 6.074163
v -5.380786 2.576893 -6.074163
v -5.380786 2.576893 -1.725805
v -5.380786 2.576893 1.725805
v -5.380786 2.576893 6.074163
v -5.380786 -1.000000 -6.074163
v -4.706820 -1.000000 -1.725805
v -4.706820 1.000000 -1.725805
v -4.706820 1.000000 6.074163
v -4.706820 -1.000000 1.725805
v -4.706820 -1.000000 6.074163
v -4.706820 1.000000 -6.074163
v -4.706820 1.000000 1.725805
v -4.706820 -1.000000 -6.074163
vn -0.0000 1.0000 -0.0000
vn 0.5735 -0.0000 0.8192
vn -0.0000 -1.0000 -0.0000
vn 0.9398 -0.0000 -0.3418
vn 0.5735 -0.0000 -0.8192
vn 0.9398 -0.0000 0.3418
vn 1.0000 -0.0000 -0.0000
vn -1.0000 -0.0000 -0.0000
vn -0.0000 -0.0000 -1.0000
vn -0.0000 -0.0000 1.0000
vn 0.9195 0.3930 -0.0000
vt 0.625000 0.500000
vt 0.375000 0.500000
vt 0.625000 0.750000
vt 0.375000 0.750000
vt 0.875000 0.500000
vt 0.625000 0.250000
vt 0.375000 0.250000
vt 0.125000 0.500000
vt 0.875000 0.750000
vt 0.625000 1.000000
vt 0.125000 0.750000
vt 0.375000 1.000000
vt 0.125000 0.583333
vt 0.125000 0.666667
vt 0.625000 0.583333
vt 0.625000 0.666667
vt 0.875000 0.666667
vt 0.875000 0.583333
vt 0.375000 0.666667
vt 0.375000 0.583333
vt 0.125000 0.666667
vt 0.375000 0.083333
vt 0.125000 0.750000
vt 0.375000 0.000000
vt 0.375000 1.000000
vt 0.625000 0.000000
vt 0.875000 0.750000
vt 0.625000 1.000000
vt 0.875000 0.500000
vt 0.625000 0.250000
vt 0.375000 0.250000
vt 0.125000 0.500000
vt 0.625000 0.166667
vt 0.875000 0.583333
vt 0.375000 0.166667
vt 0.125000 0.583333
vt 0.625000 0.083333
vt 0.875000 0.666667
vt 0.125000 0.583333
vt 0.125000 0.666667
vt 0.375000 1.000000
vt 0.125000 0.750000
vt 0.625000 0.250000
vt 0.875000 0.500000
vt 0.875000 0.583333
vt 0.875000 0.666667
vt 0.625000 1.000000
vt 0.875000 0.750000
vt 0.125000 0.500000
vt 0.375000 0.250000
vt 0.125000 0.583333
vt 0.875000 0.583333
vt 0.875000 0.750000
vt 0.625000 1.000000
vt 0.125000 0.666667
vt 0.125000 0.750000
vt 0.375000 1.000000
vt 0.875000 0.500000
vt 0.625000 0.250000
vt 0.875000 0.666667
vt 0.375000 0.250000
vt 0.125000 0.500000
s 0
usemtl Material
f 12/16/1 13/17/1 7/9/1 3/3/1
f 4/4/2 3/3/2 7/10/2 8/12/2
f 29/45/1 28/44/1 20/29/1 22/34/1
f 10/14/3 15/19/3 4/4/3 8/11/3
f 15/19/4 12/16/4 3/3/4 4/4/4
f 6/7/5 5/6/5 1/1/5 2/2/5
f 2/2/6 1/1/6 11/15/6 16/20/6
f 16/20/7 11/15/7 12/16/7 15/19/7
f 6/8/3 2/2/3 16/20/3 9/13/3
f 9/13/3 16/20/3 15/19/3 10/14/3
f 26/40/3 27/42/3 18/23/3 17/21/3
f 25/39/3 26/40/3 17/21/3 23/36/3
f 1/1/1 5/5/1 14/18/1 11/15/1
f 11/15/1 14/18/1 13/17/1 12/16/1
f 23/35/8 22/33/8 20/30/8 21/31/8
f 18/24/8 19/26/8 24/37/8 17/22/8
f 17/22/8 24/37/8 22/33/8 23/35/8
f 31/48/1 30/46/1 24/38/1 19/27/1
f 28/43/9 32/50/9 21/31/9 20/30/9
f 27/41/10 31/47/10 19/28/10 18/25/10
f 32/49/3 25/39/3 23/36/3 21/32/3
f 30/46/1 29/45/1 22/34/1 24/38/1
f 39/60/11 34/52/11 29/45/11 30/46/11
f 40/62/3 33/51/3 25/39/3 32/49/3
f 37/57/10 35/54/10 31/47/10 27/41/10
f 38/59/9 40/61/9 32/50/9 28/43/9
f 35/53/11 39/60/11 30/46/11 31/48/11
f 33/51/3 36/55/3 26/40/3 25/39/3
f 36/55/3 37/56/3 27/42/3 26/40/3
f 34/52/11 38/58/11 28/44/11 29/45/11
f 14/18/1 5/5/1 38/58/1 34/52/1
f 10/14/3 8/11/3 37/56/3 36/55/3
f 9/13/3 10/14/3 36/55/3 33/51/3
f 7/9/1 13/17/1 39/60/1 35/53/1
f 5/6/9 6/7/9 40/61/9 38/59/9
f 8/12/10 7/10/10 35/54/10 37/57/10
f 6/8/3 9/13/3 33/51/3 40/62/3
f 13/17/1 14/18/1 34/52/1 39/60/1
