# Blender 3.3.1
# www.blender.org
mtllib palta.mtl
o Icosphere
v 0.002066 -0.103118 -0.002114
v 0.075508 -0.040022 0.055203
v -0.028114 -0.039160 0.085153
v -0.092545 -0.037811 0.000520
v -0.025683 -0.038618 -0.084678
v 0.072382 -0.034294 -0.049171
v 0.023433 0.085027 0.078142
v -0.065241 0.086695 0.047591
v -0.066225 0.085026 -0.049644
v 0.023272 0.086783 -0.078025
v 0.083804 0.086736 -0.001583
v 0.003606 0.156001 0.004025
v -0.015890 -0.085141 0.054533
v 0.042245 -0.084602 0.033863
v 0.027358 -0.046478 0.081722
v 0.082928 -0.044926 0.001060
v 0.043155 -0.084014 -0.032847
v -0.053574 -0.082508 -0.000005
v -0.068490 -0.046826 0.049351
v -0.017578 -0.085150 -0.049702
v -0.070302 -0.041882 -0.052457
v 0.025005 -0.047709 -0.079298
v 0.097641 0.006054 0.031039
v 0.098043 0.009041 -0.029849
v 0.000034 0.007539 0.100017
v 0.058114 0.007358 0.081112
v -0.095997 0.008238 0.033068
v -0.054987 0.011821 0.082110
v -0.060409 0.008750 -0.080599
v -0.096672 0.007157 -0.032395
v 0.058494 0.007544 -0.081298
v -0.001293 0.004261 -0.101003
v 0.062309 0.092133 0.045761
v -0.023050 0.091488 0.071925
v -0.077782 0.089196 -0.000710
v -0.024090 0.093880 -0.073128
v 0.058826 0.094353 -0.044785
v 0.011614 0.142742 0.044505
v 0.047856 0.139649 -0.001323
v -0.043645 0.143275 0.028648
v -0.040187 0.142297 -0.030539
v 0.011802 0.142698 -0.042568
vn 0.1284 -0.9328 0.3367
vn 0.7525 -0.6386 0.1610
vn -0.3350 -0.9235 0.1869
vn -0.3469 -0.9158 -0.2026
vn 0.1268 -0.9095 -0.3958
vn 0.9199 -0.3587 0.1586
vn 0.0175 -0.3128 0.9497
vn -0.8706 -0.3259 0.3687
vn -0.5374 -0.3271 -0.7773
vn 0.5708 -0.3724 -0.7318
vn 0.7832 -0.0513 0.6196
vn -0.3153 -0.1100 0.9426
vn -0.9965 -0.0829 0.0116
vn -0.3329 -0.1641 -0.9286
vn 0.7800 -0.1971 -0.5939
vn 0.4929 0.5113 0.7040
vn -0.4859 0.4386 0.7560
vn -0.8508 0.4671 -0.2407
vn -0.0073 0.5344 -0.8452
vn 0.7728 0.5268 -0.3539
vn 0.3167 0.9253 -0.2085
vn 0.6134 0.6191 -0.4904
vn 0.5151 0.5319 -0.6721
vn -0.0735 0.9555 -0.2857
vn -0.1823 0.6145 -0.7675
vn -0.5029 0.4705 -0.7250
vn -0.2754 0.9608 -0.0320
vn -0.8298 0.5551 -0.0577
vn -0.8743 0.4169 0.2486
vn -0.0842 0.9419 0.3252
vn -0.2211 0.5721 0.7898
vn -0.0471 0.4958 0.8672
vn 0.3615 0.9048 0.2248
vn 0.6249 0.6372 0.4512
vn 0.7903 0.5355 0.2978
vn 0.8452 0.3126 -0.4335
vn 0.7647 0.2473 -0.5950
vn 0.6154 0.3036 -0.7274
vn -0.0565 0.2834 -0.9573
vn -0.3045 0.2114 -0.9288
vn -0.5117 0.2893 -0.8090
vn -0.9204 0.3060 -0.2434
vn -0.9750 0.2220 0.0064
vn -0.9156 0.3119 0.2539
vn -0.5016 0.3046 0.8097
vn -0.2845 0.2329 0.9299
vn -0.0863 0.2947 0.9517
vn 0.5811 0.2886 0.7610
vn 0.7696 0.2129 0.6020
vn 0.8812 0.2991 0.3660
vn 0.2998 0.1720 -0.9384
vn 0.3161 -0.2250 -0.9217
vn 0.0319 -0.3714 -0.9279
vn -0.7891 0.1784 -0.5878
vn -0.7836 -0.1778 -0.5953
vn -0.8786 -0.3320 -0.3434
vn -0.7607 0.1829 0.6228
vn -0.7473 -0.1845 0.6384
vn -0.6078 -0.2760 0.7446
vn 0.3054 0.1722 0.9365
vn 0.3049 -0.1636 0.9382
vn 0.4920 -0.2717 0.8271
vn 0.9845 0.1749 0.0151
vn 0.9619 -0.2735 -0.0071
vn 0.8766 -0.3993 -0.2686
vn 0.5559 -0.5355 -0.6358
vn 0.1941 -0.7347 -0.6501
vn -0.0236 -0.6033 -0.7972
vn -0.4457 -0.5862 -0.6766
vn -0.5754 -0.7252 -0.3782
vn -0.7298 -0.6333 -0.2577
vn -0.7300 -0.6393 0.2416
vn -0.5722 -0.7369 0.3598
vn -0.4814 -0.5709 0.6651
vn 0.7839 -0.5533 -0.2817
vn 0.6995 -0.7146 0.0033
vn 0.4202 -0.9074 -0.0023
vn -0.0223 -0.5582 0.8294
vn 0.2376 -0.7224 0.6494
vn 0.4371 -0.6323 0.6396
vt 0.181819 0.000000
vt 0.909091 0.000000
vt 0.727273 0.000000
vt 0.545455 0.000000
vt 0.363637 0.000000
vt 0.272728 0.157461
vt 1.000000 0.157461
vt 0.090910 0.157461
vt 0.818182 0.157461
vt 0.636364 0.157461
vt 0.454546 0.157461
vt 0.181819 0.314921
vt 0.000000 0.314921
vt 0.909091 0.314921
vt 0.727273 0.314921
vt 0.545455 0.314921
vt 0.363637 0.314921
vt 0.454546 0.472382
vt 0.636364 0.472382
vt 0.818182 0.472382
vt 0.090910 0.472382
vt 0.272728 0.472382
vt 0.954545 0.078731
vt 0.136365 0.078731
vt 0.318182 0.078731
vt 0.227273 0.078731
vt 0.181819 0.157461
vt 0.363637 0.157461
vt 0.500000 0.078731
vt 0.409092 0.078731
vt 0.772727 0.078731
vt 0.863636 0.078731
vt 0.909091 0.157461
vt 0.590909 0.078731
vt 0.681818 0.078731
vt 0.727273 0.157461
vt 0.545455 0.157461
vt 0.318182 0.236191
vt 0.409092 0.236191
vt 0.136365 0.236191
vt 0.227273 0.236191
vt 0.863636 0.236191
vt 0.045455 0.236191
vt 0.954545 0.236191
vt 0.681818 0.236191
vt 0.772727 0.236191
vt 0.500000 0.236191
vt 0.590909 0.236191
vt 0.272728 0.314921
vt 0.090910 0.314921
vt 0.818182 0.314921
vt 0.636364 0.314921
vt 0.454546 0.314921
vt 0.136365 0.393651
vt 0.227273 0.393651
vt 0.409092 0.393651
vt 0.318182 0.393651
vt 0.863636 0.393651
vt 0.045455 0.393651
vt 0.681818 0.393651
vt 0.772727 0.393651
vt 0.500000 0.393651
vt 0.590909 0.393651
s 0
f 1/1/1 14/26/1 13/24/1
f 2/6/2 14/25/2 16/28/2
f 1/2/3 13/23/3 18/32/3
f 1/3/4 18/31/4 20/35/4
f 1/4/5 20/34/5 17/29/5
f 2/6/6 16/28/6 23/38/6
f 3/8/7 15/27/7 25/40/7
f 4/9/8 19/33/8 27/42/8
f 5/10/9 21/36/9 29/45/9
f 6/11/10 22/37/10 31/47/10
f 2/6/11 23/38/11 26/41/11
f 3/8/12 25/40/12 28/43/12
f 4/9/13 27/42/13 30/46/13
f 5/10/14 29/45/14 32/48/14
f 6/11/15 31/47/15 24/39/15
f 7/12/16 33/49/16 38/55/16
f 8/13/17 34/50/17 40/59/17
f 9/15/18 35/51/18 41/61/18
f 10/16/19 36/52/19 42/63/19
f 11/17/20 37/53/20 39/56/20
f 39/56/21 42/62/21 12/18/21
f 39/56/22 37/53/22 42/62/22
f 37/53/23 10/16/23 42/62/23
f 42/63/24 41/60/24 12/19/24
f 42/63/25 36/52/25 41/60/25
f 36/52/26 9/15/26 41/60/26
f 41/61/27 40/58/27 12/20/27
f 41/61/28 35/51/28 40/58/28
f 35/51/29 8/14/29 40/58/29
f 40/59/30 38/54/30 12/21/30
f 40/59/31 34/50/31 38/54/31
f 34/50/32 7/12/32 38/54/32
f 38/55/33 39/57/33 12/22/33
f 38/55/34 33/49/34 39/57/34
f 33/49/35 11/17/35 39/57/35
f 24/39/36 37/53/36 11/17/36
f 24/39/37 31/47/37 37/53/37
f 31/47/38 10/16/38 37/53/38
f 32/48/39 36/52/39 10/16/39
f 32/48/40 29/45/40 36/52/40
f 29/45/41 9/15/41 36/52/41
f 30/46/42 35/51/42 9/15/42
f 30/46/43 27/42/43 35/51/43
f 27/42/44 8/14/44 35/51/44
f 28/43/45 34/50/45 8/13/45
f 28/43/46 25/40/46 34/50/46
f 25/40/47 7/12/47 34/50/47
f 26/41/48 33/49/48 7/12/48
f 26/41/49 23/38/49 33/49/49
f 23/38/50 11/17/50 33/49/50
f 31/47/51 32/48/51 10/16/51
f 31/47/52 22/37/52 32/48/52
f 22/37/53 5/10/53 32/48/53
f 29/45/54 30/46/54 9/15/54
f 29/45/55 21/36/55 30/46/55
f 21/36/56 4/9/56 30/46/56
f 27/42/57 28/44/57 8/14/57
f 27/42/58 19/33/58 28/44/58
f 19/33/59 3/7/59 28/44/59
f 25/40/60 26/41/60 7/12/60
f 25/40/61 15/27/61 26/41/61
f 15/27/62 2/6/62 26/41/62
f 23/38/63 24/39/63 11/17/63
f 23/38/64 16/28/64 24/39/64
f 16/28/65 6/11/65 24/39/65
f 17/29/66 22/37/66 6/11/66
f 17/29/67 20/34/67 22/37/67
f 20/34/68 5/10/68 22/37/68
f 20/35/69 21/36/69 5/10/69
f 20/35/70 18/31/70 21/36/70
f 18/31/71 4/9/71 21/36/71
f 18/32/72 19/33/72 4/9/72
f 18/32/73 13/23/73 19/33/73
f 13/23/74 3/7/74 19/33/74
f 16/28/75 17/30/75 6/11/75
f 16/28/76 14/25/76 17/30/76
f 14/25/77 1/5/77 17/30/77
f 13/24/78 15/27/78 3/8/78
f 13/24/79 14/26/79 15/27/79
f 14/26/80 2/6/80 15/27/80
